<svg height="31" viewBox="0 0 28 31" width="28" xmlns="http://www.w3.org/2000/svg"><path d="m423.82 89.6c.007206.7724025-.444495 1.4754849-1.15 1.79-.25873.125309-.542522.1902735-.83.19-.469802-.0046895-.922956-.1746226-1.28-.48l-10.19-8.74-10.19 8.74c-.357044.3053774-.810198.4753105-1.28.48-.287478.0002735-.57127-.064691-.83-.19-.705505-.3145151-1.157206-1.0175975-1.15-1.79v-25.73c0-1.4966917 1.213308-2.71 2.71-2.71h21.48c1.496692 0 2.71 1.2133083 2.71 2.71z" fill="#262626" fill-rule="evenodd" transform="translate(-396 -61)"/></svg>
