<svg height="32" viewBox="0 0 28 32" width="28" xmlns="http://www.w3.org/2000/svg"><path d="m421.11 122.71h-21.47c-.720468-.002659-1.412339.281684-1.922727.790196-.510389.508512-.797278 1.199331-.797273 1.919804v25.73c.007848.76798.454775 1.463632 1.15 1.79.26059.118728.543637.180112.83.18.468549-.001893.921561-.168233 1.28-.47l10.19-8.74 10.2 8.74c.591629.474252 1.400573.573153 2.089032.255403s1.138025-.997502 1.160968-1.755403v-25.73c0-1.496692-1.213308-2.71-2.71-2.71zm1.11 28.44c.000056.143963-.081247.275596-.21.34-.133433.061098-.290365.037558-.4-.06l-10.72-9.18c-.290916-.237817-.709084-.237817-1 0l-10.71 9.18c-.10913.100075-.267414.125453-.402359.06451-.134946-.060944-.220563-.19647-.217641-.34451v-25.73c.005488-.61465.505325-1.110025 1.12-1.11h21.47c.29439 0 .576723.116946.784889.325111.208165.208166.325111.490499.325111.784889z" fill="#262626" transform="translate(-396 -122)"/></svg>
