<svg height="32" viewBox="0 0 31 32" width="31" xmlns="http://www.w3.org/2000/svg"><path d="m371.45 14c-1.50271-6.27809399-6.757016-10.95565629-13.16685-11.72157776-6.409833-.76592147-12.61833 2.54193182-15.55797 8.28920216-2.93964 5.7472703-1.988147 12.7173481 2.384362 17.4664286 4.372509 4.7490806 11.24044 6.271856 17.210458 3.815947.422941-.1835567.896312-.2153503 1.34-.09l4.34 1.24c.216447.0704977.442375.1075904.67.11.678926-.0033058 1.321385-.3077008 1.753935-.8310094.43255-.5233087.610594-1.2115745.486065-1.8789906l-.91-4.65c-.061751-.4283672.011658-.8653284.21-1.25 1.6471-3.2416982 2.086663-6.9638002 1.24-10.5zm-2.84 9.74c-.385351.7334628-.51553 1.5743505-.37 2.39l.88 4.67c.028326.1675981-.032227.337904-.16.45-.124434.1204609-.305032.1627286-.47.11l-4.3-1.36c-.323371-.1033998-.66051-.1573421-1-.16-.521699.0063957-1.037463.1115843-1.52.31-6.100681 2.4903576-13.109231.2561924-16.643121-5.3054457-3.533889-5.5616381-2.579488-12.8554975 2.266405-17.32064184 4.845893-4.46514429 12.193324-4.82083061 17.447859-.8446441 5.254535 3.97618654 6.909007 11.14375144 3.928857 17.02073164z" fill="#262626" transform="translate(-341 -2)"/></svg>
