<svg height="32" viewBox="0 0 37 32" width="37" xmlns="http://www.w3.org/2000/svg"><path d="m374.14 75.49c-.331193 1.0305695-.816709 2.0049739-1.44 2.89-.632327.9146519-1.393529 1.7331123-2.26 2.43l-12.8 10.35c-.325119.2722739-.735931.4210159-1.16.42-.418-.0064301-.822211-.15054-1.15-.41l-12.8-10.35c-1.73207-1.3770009-3.019176-3.2346075-3.7-5.34-1.386109-4.3749723-.155573-9.1573679 3.17-12.32 3.075726-2.9065487 7.574509-3.7294968 11.48-2.1 1.156984.5001976 2.183437 1.2597731 3 2.22.813819-.9631574 1.841015-1.7232822 3-2.22 3.916603-1.647056 8.436501-.8231162 11.52 2.1 3.318764 3.1711617 4.537725 7.957721 3.14 12.33z" fill="#ffffff" fill-rule="evenodd" transform="translate(-338 -60)"/></svg>
