<svg height="33" viewBox="0 0 37 33" width="37" xmlns="http://www.w3.org/2000/svg"><path d="m356.48 153.12c-.416962-.002826-.821286-.143461-1.15-.4l-12.79-10.36c-1.737413-1.371955-3.031431-3.226019-3.72-5.33-1.383635-4.376869-.149137-9.159577 3.18-12.32 3.075726-2.906549 7.574509-3.729497 11.48-2.1 1.158985.496718 2.186181 1.256843 3 2.22.812801-.964243 1.840275-1.724573 3-2.22 3.904915-1.634835 8.406702-.811337 11.48 2.1 3.317544 3.154694 4.551104 7.922132 3.18 12.29-.686832 2.099637-1.973007 3.952425-3.7 5.33l-12.8 10.35c-.324916.275101-.734372.430412-1.16.44zm-7.17-29.44c-2.233167.004087-4.380061.862844-6 2.4-2.808149 2.660957-3.845631 6.694313-2.67 10.38.57167 1.753922 1.65045 3.299013 3.1 4.44l12.79 10.35 12.74-10.35c1.44476-1.145503 2.52244-2.68902 3.1-4.44 1.175631-3.685687.138149-7.719043-2.67-10.38-2.550726-2.40394-6.278842-3.078215-9.51-1.72-1.188979.56003-2.204714 1.430661-2.94 2.52l-.75 1-.75-1c-.737544-1.081027-1.748573-1.947131-2.93-2.51-1.115401-.451366-2.306741-.685561-3.51-.69z" fill="#262626" transform="translate(-338 -121)"/></svg>
