<svg height="32" viewBox="0 0 37 32" width="37" xmlns="http://www.w3.org/2000/svg"><path d="m423.73 2.68c-.151948-.30202825-.461909-.49187887-.8-.49h-34.16c-.377584-.00392214-.715583.23348176-.84.59-.134705.35277217-.034868.7521211.25 1l12 10.27v18.19c.002298.3872057.252001.7295407.62.85.092787.0142861.187213.0142861.28 0 .283282 0 .550031-.1333747.72-.36l21.82-29.14c.197914-.2613716.239935-.60899827.11-.91zm-32.53 1.32h27.8l-17.77 8.57zm10.8 10.19 18-8.69-18 24z" fill="#262626" transform="translate(-387 -2)"/></svg>