<svg height="33" viewBox="0 0 34 33" width="34" xmlns="http://www.w3.org/2000/svg"><g fill="#262626"><path d="m17.25 19.78c5.2177856-.0055215 9.4436777-4.2388724 9.4399976-9.4566596-.00368-5.21778721-4.2355392-9.44517306-9.4533274-9.44333452s-9.44666728 4.23220562-9.4466702 9.44999412c.00551872 5.2207081 4.239289 9.4500029 9.46 9.45zm0-17.28c4.2802068 0 7.75 3.46979319 7.75 7.75 0 4.2802068-3.4697932 7.75-7.75 7.75s-7.75-3.4697932-7.75-7.75c0-4.28020681 3.4697932-7.75 7.75-7.75z"/><path d="m9.43 21.23c-2.36307892 0-4.62937229.9387294-6.30032142 2.6096786-1.67094913 1.6709491-2.60967858 3.9372425-2.60967858 6.3003214v1.32c0 .93 1.45.87 1.45-.06v-1.26c0-4.1200442 3.33995577-7.46 7.46-7.46h15.62c1.9802471-.0026545 3.8802973.7821355 5.2814822 2.1814447 1.401185 1.3993092 2.1885196 3.2983065 2.1885178 5.2785553v1.26c0 .93 1.44 1 1.45.06v-1.32c.0000015-2.3648126-.9401005-4.6326227-2.6132131-6.3038596s-3.9419758-2.6087945-6.3067869-2.6061404z"/><path d="m9.43 21.5000056c-2.36307892 0-4.62937229.9387295-6.30032142 2.6096786s-2.60967858 3.9372425-2.60967858 6.3003214v1.32c0 .93 1.45.87 1.45-.06v-1.26c0-4.1200442 3.33995577-7.46 7.46-7.46h15.62c1.9802471-.0026545 3.8802973.7821356 5.2814822 2.1814447 1.401185 1.3993092 2.1885196 3.2983065 2.1885178 5.2785553v1.26c0 .93 1.44 1 1.45.06v-1.32c.0000015-2.3648125-.9401005-4.6326227-2.6132131-6.3038596s-3.9419758-2.6087945-6.3067869-2.6061404z"/></g></svg>