<svg height="67" viewBox="0 0 218 67" width="218" xmlns="http://www.w3.org/2000/svg"><g fill="#262626" fill-rule="evenodd"><path d="m37.592 39.424c-.2560013.2560013-.7893293.5759981-1.6.96s-1.919993.576-3.328.576c-.9386714 0-1.7173302-.2133312-2.336-.64s-.928-1.4293254-.928-3.008c-.0853338-1.7066752-.1919994-3.3173258-.32-4.832s-.2773325-3.0399923-.448-4.576c-1.1093389.0426669-2.3253267.064-3.648.064s-2.4746618.0426662-3.456.128c-.5120026 1.8773427-1.130663 3.6693248-1.856 5.376s-1.6319946 3.2213267-2.72 4.544-2.3893258 2.3679962-3.904 3.136-3.31732288 1.152-5.408 1.152c-.81067072 0-1.63199584-.095999-2.464-.288s-1.58932992-.5119978-2.272-.96-1.2373312-1.0453296-1.664-1.792-.64-1.6746611-.64-2.784c0-.5120026.17066496-.9706646.512-1.376s.76799744-.608 1.28-.608c.8533376 0 1.40799872.2879971 1.664.864s.50133216 1.2159965.736 1.92.618664 1.3439971 1.152 1.92 1.50399296.864 2.912.864c1.02400512 0 1.973329-.2559974 2.848-.768s1.674663-1.1733293 2.4-1.984 1.354664-1.7066618 1.888-2.688.970665-1.9413286 1.312-2.88c.3840019-1.1093389.6399994-1.8773312.768-2.304s.2346662-.7466656.32-.96c0-.0853338-.0639994-.128-.192-.128-1.1093389.1280006-2.0586627.2239997-2.848.288s-1.5253299.096-2.208.096c-.8960045 0-1.6426637-.0533328-2.24-.16s-.896-.5013299-.896-1.184c0-.3840019.1813315-.6933322.544-.928s.8853299-.4053328 1.568-.512 1.4826621-.1919997 2.4-.256 1.9519942-.1386662 3.104-.224c.4693357-.0426669.874665-.0746666 1.216-.096s.5333331-.0959994.576-.224c.3840019-1.1946726.746665-2.4106605 1.088-3.648l1.024-3.712c.5546694-2.1760109 1.0453312-4.5546538 1.472-7.136.4266688-2.58134624.64-5.10932096.64-7.584 0-.4266688-.0106666-.77866528-.032-1.056s-.032-.47999936-.032-.608c.2133344-.08533376.490665-.128.832-.128s.682665-.04266624 1.024-.128.7573309-.22399904 1.248-.416 1.0559968-.288 1.696-.288c.2133344 0 .5653309.0533328 1.056.16s.9919974.25599904 1.504.448.9706646.40533216 1.376.64.608.47999872.608.736v10.176c0 3.3706835.170665 6.6239843.512 9.76s.7466643 5.9306544 1.216 8.384.970664 4.4586589 1.504 6.016 1.0133312 2.4426656 1.44 2.656zm-9.344-14.144c-.0853338-.9386714-.2026659-2.0479936-.352-3.328s-.3306656-2.5813267-.544-3.904-.4266656-2.6026605-.64-3.84-.4266656-2.2613293-.64-3.072c-.1280006.341335-.3093322.9173293-.544 1.728s-.5013318 1.7279949-.8 2.752-.5866653 2.0906611-.864 3.2-.5439987 2.1333286-.8 3.072-.4586659 1.7173302-.608 2.336-.224.9706662-.224 1.056zm27.0071772 5.7292698c-.0421182-.6558748-.0631772-1.3282972-.0631772-2.0172698v-.576c.0426669-2.1760109.1066662-4.3946554.192-6.656s.1706662-4.3519904.256-6.272c0-.341335-.3413299-.5759994-1.024-.704s-1.4506624-.2559994-2.304-.384-1.6213299-.3306653-2.304-.608-1.024-.7359968-1.024-1.376c0-.5546694.5546611-.8746662 1.664-.96s2.7519891-.128 4.928-.128c.1706675 0 .2879997-.2559974.352-.768s.1066666-1.16266272.128-1.952.0426666-1.63199552.064-2.528.0533331-1.73866272.096-2.528.1173328-1.43999744.224-1.952.2453325-.768.416-.768c.2133344 0 .5973306.04266624 1.152.128s1.1306637.20266592 1.728.352 1.1199978.3306656 1.568.544.672.44799872.672.704l-.704 8.32c0 .2560013.2239978.4373328.672.544s1.0239965.1706666 1.728.192 1.4506627.032 2.24.032 1.5359965.0639994 2.24.192 1.2799978.3306653 1.728.608.672.6933306.672 1.248c0 .0853338-.0426662.223999-.128.416s-.1919994.288-.32.288c-.0853338 0-.2026659-.0639994-.352-.192s-.5439968-.192-1.184-.192c-.1706675 0-.6399962.0213331-1.408.064s-1.5786624.1066662-2.432.192-1.6319965.1813328-2.336.288-1.0986662.2453325-1.184.416c-.0426669.0853338-.0959997.5866621-.16 1.504s-.1279997 2.1226592-.192 3.616-.1173331 3.210657-.16 5.152-.064 3.978656-.064 6.112c0 .8106707.0426662 1.5999962.128 2.368s.2133325 1.4613302.384 2.08.3946653 1.1199981.672 1.504.6079981.576.992.576c.5546694 0 1.0666643-.2346643 1.536-.704s.8959981-1.1093293 1.28-1.92.7253318-1.7279949 1.024-2.752.5546656-2.069328.768-3.136c.1280006-.6400032.2773325-1.0986653.448-1.376s.426665-.416.768-.416c.2466606 0 .4714924.0654769.6745.1964325-.2342026-.3311219-.4483689-.6739322-.6425-1.0284325-.4906691-.8960045-.736-1.877328-.736-2.944 0-1.4933408.4799952-2.7519949 1.44-3.776s2.0906602-1.8346637 3.392-2.432 2.6346598-1.0239987 4-1.28 2.4319962-.384 3.2-.384c.725337 0 1.450663.1493318 2.176.448s1.088.8746624 1.088 1.728c0 .2560013-.0533328.6293309-.16 1.12s-.2773322.9706643-.512 1.44-.5439981.8853315-.928 1.248-.8746637.544-1.472.544c-.1706675 0-.3413325-.0746659-.512-.224s-.3626656-.319999-.576-.512-.4373322-.3626659-.672-.512-.5013318-.224-.8-.224c-1.4933408 0-2.5386637.437329-3.136 1.312s-.896 1.8026618-.896 2.784c0 .8533376.5013283 1.7493286 1.504 2.688s2.1119939 1.8773286 3.328 2.816 2.3253283 1.8666621 3.328 2.784 1.504 1.8026624 1.504 2.656c0 1.0240051-.3413299 1.8133306-1.024 2.368s-1.461329.9599987-2.336 1.216-1.749329.4159997-2.624.48-1.5039981.096-1.888.096c-.5973363 0-1.333329-.0639994-2.208-.192s-1.7279958-.3306653-2.56-.608-1.5359971-.6719974-2.112-1.184c-.433779-.3855814-.7042194-.8437512-.8113248-1.3745176-.0487086.106314-.098267.2124866-.1486752.3185176-.6186698 1.3013398-1.3759955 2.4426618-2.272 3.424s-1.9413274 1.472-3.136 1.472c-1.1520058 0-2.1546624-.3306634-3.008-.992s-1.5679971-1.5786608-2.144-2.752c-.3037828-.6188169-.5689937-1.2969666-.7956345-2.0344554-.052788.143961-.1075766.2887794-.1643655.4344554-.4906691 1.258673-1.1519958 2.3786618-1.984 3.36s-1.8879936 1.472-3.168 1.472c-1.3653402 0-2.4533293-.4799952-3.264-1.44s-1.4293312-2.1119933-1.856-3.456-.7039994-2.7519926-.832-4.224-.192-2.6986618-.192-3.68c0-1.1093389.0639994-2.2293277.192-3.36s.2133331-2.2506611.256-3.36c0-.341335-.170665-.5546662-.512-.64s-.6613318-.128-.96-.128c-.5120026 0-.8319994.0639994-.96.192s-.2133331.2773325-.256.448l-.256 2.048c-.1706675 1.3653402-.351999 2.677327-.544 3.936s-.4053322 2.3679952-.64 3.328-.5119984 1.7279971-.832 2.304-.6933312.864-1.12.864h-.064c-.1706675 0-.3306659-.0426662-.48-.128s-.224-.298665-.224-.64c0-.1706675.0426662-.426665.128-.768.341335-1.4933408.5546662-2.7306618.64-3.712s.1493331-1.8559962.192-2.624v-.448c0-.2133344.0106666-.4693318.032-.768s.032-.6613312.032-1.088v-3.136c0-.5120026-.0426662-1.0666637-.128-1.664l-.192-3.776c0-.2560013.1066656-.4906656.32-.704s.490665-.4053325.832-.576.7039981-.2986662 1.088-.384.7253318-.128 1.024-.128c.725337 0 1.088.4693286 1.088 1.408v.32l-.064 1.408v.384c0 .2986682.0639994.4799997.192.544s.3839981.1386662.768.224h.192c.341335.0426669.8959962.0853331 1.664.128s1.5359962.1279994 2.304.256 1.4399971.3306653 2.016.608.864.6719974.864 1.184c0 .1706675-.0426662.4159984-.128.736s-.1919994.6399984-.32.96-.2346662.6079987-.32.864-.128.4266662-.128.512c-.7680038 2.9440147-1.152 6.015984-1.152 9.216 0 .2560013.0213331.7253299.064 1.408s.1279994 1.386663.256 2.112.3199987 1.3653306.576 1.92.5759981.832.96.832c.6400032 0 1.2159974-.3946627 1.728-1.184s.9599981-1.7066614 1.344-2.752.6933322-2.101328.928-3.168c.0575499-.2615903.1106089-.5065002.1591772-.7347302zm13.0804285 4.197324c.2981539-.1323964.58895-.1985938.8723943-.1985938.4693357 0 .9279978.170665 1.376.512s.9173309.7039981 1.408 1.088 1.0346637.746665 1.632 1.088 1.2799962.512 2.048.512c.341335 0 .7999971-.1173322 1.376-.352s.864-.6506637.864-1.248-.2453309-1.1733306-.736-1.728-1.1093296-1.1306637-1.856-1.728-1.5466624-1.2159968-2.4-1.856-1.6533296-1.3333296-2.4-2.08c-.3029497-.3029497-.5848265-.6181892-.8456314-.9457199.0730878.2281623.1096314.5327348.1096314.9137199 0 .4266688-.0213331.7039994-.064.832-.1280006.7680038-.3733315 1.8239933-.736 3.168-.1833995.6796568-.3995302 1.353853-.6483943 2.0225938zm52.9105473 1.3196925c-.188198.3207434-.392915.6359808-.614153.9457137-.533336.7466704-1.151996 1.3759974-1.856 1.888s-1.482662.768-2.336.768c-1.280006 0-2.399995-.4906618-3.36-1.472s-1.546666-2.367991-1.76-4.16c-.256001.6826701-.554665 1.4719955-.896 2.368s-.767997 1.7279962-1.28 2.496-1.098663 1.418664-1.76 1.952-1.439996.8-2.336.8c-.256001 0-.447999-.0213331-.576-.064s-.266666-.0959997-.416-.16-.319999-.1173331-.512-.16-.458665-.064-.8-.064c-1.024005 0-1.887996-.3306634-2.592-.992-.7040035-.6613366-1.2693312-1.5039949-1.696-2.528-.3400892-.816214-.6056289-1.6934099-.7966238-2.6316048-.2135199.5502453-.4493116 1.0967793-.7073762 1.6396048-.6186698 1.3013398-1.3759955 2.4426618-2.272 3.424s-1.9413274 1.472-3.136 1.472c-1.1520058 0-2.1546624-.3306634-3.008-.992s-1.5679971-1.5786608-2.144-2.752-1.0133318-2.559992-1.312-4.16-.448-3.3173242-.448-5.152v-.576c.0426669-2.1760109.1066662-4.3946554.192-6.656s.1706662-4.3519904.256-6.272c0-.341335-.3413299-.5759994-1.024-.704s-1.4506624-.2559994-2.304-.384-1.6213299-.3306653-2.304-.608-1.024-.7359968-1.024-1.376c0-.5546694.5546611-.8746662 1.664-.96s2.7519891-.128 4.928-.128c.1706675 0 .2879997-.2559974.352-.768s.1066666-1.16266272.128-1.952.0426666-1.63199552.064-2.528.0533331-1.73866272.096-2.528.1173328-1.43999744.224-1.952.2453325-.768.416-.768c.2133344 0 .5973306.04266624 1.152.128s1.1306637.20266592 1.728.352 1.1199978.3306656 1.568.544.672.44799872.672.704l-.704 8.32c0 .2560013.2239978.4373328.672.544s1.0239965.1706666 1.728.192 1.4506627.032 2.24.032 1.5359965.0639994 2.24.192 1.2799978.3306653 1.728.608.672.6933306.672 1.248c0 .0853338-.0426662.223999-.128.416s-.1919994.288-.32.288c-.0853338 0-.2026659-.0639994-.352-.192s-.5439968-.192-1.184-.192c-.1706675 0-.6399962.0213331-1.408.064s-1.5786624.1066662-2.432.192-1.6319965.1813328-2.336.288-1.0986662.2453325-1.184.416c-.0426669.0853338-.0959997.5866621-.16 1.504s-.1279997 2.1226592-.192 3.616-.1173331 3.210657-.16 5.152-.064 3.978656-.064 6.112c0 .8106707.0426662 1.5999962.128 2.368s.2133325 1.4613302.384 2.08.3946653 1.1199981.672 1.504.6079981.576.992.576c.5546694 0 1.0666643-.2346643 1.536-.704s.8959981-1.1093293 1.28-1.92.7253318-1.7279949 1.024-2.752.5546656-2.069328.768-3.136c.1280006-.6400032.2773325-1.0986653.448-1.376.0068563-.0111415.0138503-.0220592.020982-.032753.0686936-1.3395215.1790327-2.6405998.331018-3.903247.2773347-2.3040115.7359968-4.3413245 1.376-6.112s1.471995-3.1786614 2.496-4.224 2.261326-1.568 3.712-1.568c.853338 0 1.503998.0746659 1.952.224s.863998.319999 1.248.512.799998.3946656 1.248.608 1.077329.3839994 1.888.512c.896004.5120026 1.525332 1.1199965 1.888 1.824s.597333 1.4613293.704 2.272.138667 1.653329.096 2.528-.000001 1.7386624.128 2.592c0 .0426669.095999.1066662.288.192s.415999.1813328.672.288.479999.255999.672.448.288.4373318.288.736v.256c-.426669 1.1093389-.682666 2.0906624-.768 2.944s-.128 1.8773274-.128 3.072c0 .5973363.032 1.2479965.096 1.952s.170666 1.3653302.32 1.984.373332 1.1306646.672 1.536.682664.608 1.152.608c.512003 0 .970665-.2559974 1.376-.768s.746665-1.0986634 1.024-1.76.511999-1.3333299.704-2.016c.006064-.0215626.012054-.0429549.01797-.0641769-.033313-.6727077-.04997-1.3766474-.04997-2.1118231 0-2.0053434.117332-4.074656.352-6.208s.650664-4.0853245 1.248-5.856 1.397328-3.2213277 2.4-4.352 2.271992-1.696 3.808-1.696c.170668 0 .394665.0639994.672.192s.575998.2666659.896.416l.96.448c.320002.1493341.565332.2453331.736.288.853338.1706675 1.642663.3839987 2.368.64s1.343997.5866646 1.856.992.917332.9386634 1.216 1.6.448 1.4826618.448 2.464c0 .6826701-.053333 1.3013306-.16 1.856s-.16 1.2586624-.16 2.112c0 .341335.127999.5759994.384.704s.543998.2346662.864.32.607999.1813328.864.288.384.330665.384.672c0 .0853338-.095999.2879984-.288.608s-.309333.5226662-.352.608c-.128001.341335-.234666.8853296-.32 1.632s-.149333 1.557329-.192 2.432-.074667 1.7706621-.096 2.688-.032 1.738663-.032 2.464v2.208c0 .9173379.021333 1.6746637.064 2.272h.256c.085334 0 .170666-.0106666.256-.032s.149333-.032.192-.032c.384002 0 .906663.1173322 1.568.352s.992.5866643.992 1.056c0 .4266688-.191998.7253325-.576.896s-.746665.256-1.088.256l-1.28-.128c-.213334 0-.32.1279987-.32.384l-.064.768c.042667 1.1520058.064 2.6026579.064 4.352v5.056c0 1.7066752-.053333 3.3813251-.16 5.024s-.351998 3.1146602-.736 4.416-.927996 2.3466627-1.632 3.136-1.67466 1.184-2.912 1.184c-1.066672 0-2.186661-.0533328-3.36-.16s-2.239995-.3733312-3.2-.8-1.74933-1.0559958-2.368-1.888-.928-1.951993-.928-3.36.159998-2.8479926.48-4.32.778664-2.9013264 1.376-4.288 1.311996-2.709327 2.144-3.968 1.738662-2.3786618 2.72-3.36c.512003-.5120026 1.07733-1.034664 1.696-1.568s1.162664-.970665 1.632-1.312v-.064c.085334-.8960045.149333-1.7919955.192-2.688s.064-1.8133286.064-2.752c-.213334.3840019-.469332.9066634-.768 1.568s-.650665 1.2906637-1.056 1.888-.863997 1.1199978-1.376 1.568-1.087997.672-1.728.672c-.341335 0-.639999-.0639994-.896-.192s-.618664-.192-1.088-.192c-1.194673-.0853338-2.186663-.4053306-2.976-.96s-1.407998-1.3226618-1.856-2.304c-.27371-.5995554-.495658-1.2667907-.665847-2.0017137zm-10.502153-13.8702863c0-.4693357-.042666-1.0239968-.128-1.664s-.234666-1.2373306-.448-1.792-.533331-1.0239981-.96-1.408-1.002663-.576-1.728-.576c-1.194673 0-2.16533.5439946-2.912 1.632s-1.333331 2.3679926-1.76 3.84-.703999 2.9866589-.832 4.544-.192 2.7839955-.192 3.68c0 .6826701.032 1.5039952.096 2.464s.181332 1.8666624.352 2.72.415998 1.5786637.736 2.176.735997.896 1.248.896c1.23734 0 2.186663-.4799952 2.848-1.44s1.162665-2.1546595 1.504-3.584.586666-2.9653251.736-4.608.287999-3.1466598.416-4.512c.085334-.725337.277332-1.183999.576-1.376s.448-.3306662.448-.416zm22.976-.768c0-.4693357-.042666-1.0026637-.128-1.6s-.234666-1.162664-.448-1.696-.522665-.9813315-.928-1.344-.906664-.544-1.504-.544c-.810671 0-1.567996.3199968-2.272.96s-1.322664 1.5466608-1.856 2.72-.959998 2.6026582-1.28 4.288-.48 3.594656-.48 5.728c0 .8960045.032 1.8239952.096 2.784s.170666 1.8239962.32 2.592.383998 1.4079974.704 1.92.735997.768 1.248.768c.896004 0 1.68533-.3839962 2.368-1.152s1.247998-1.7173277 1.696-2.848.789332-2.3039939 1.024-3.52.373333-2.2719955.416-3.168c.042667-1.2373395.106666-2.0799978.192-2.528s.170666-.7359994.256-.864c.256001-.341335.416-.7466643.48-1.216s.096-.8959981.096-1.28zm-.256 22.272c-.981338.6826701-1.909329 1.6426605-2.784 2.88s-1.631997 2.5813261-2.272 4.032-1.141332 2.9226592-1.504 4.416-.544 2.8373274-.544 4.032c0 .4266688.042666.8959974.128 1.408s.223999.9919978.416 1.44.469332.8213318.832 1.12.799997.448 1.312.448c.896004 0 1.631997-.3733296 2.208-1.12s1.023998-1.6319949 1.344-2.656.533333-2.069328.64-3.136.16-1.9199968.16-2.56v-.576c0-.2560013.010667-.746663.032-1.472s.032-1.7386602.032-3.04zm27.584-13.184c0 .2986682-.095999 1.0133277-.288 2.144s-.533331 2.325327-1.024 3.584-1.151996 2.3786618-1.984 3.36-1.887994 1.472-3.168 1.472c-1.36534 0-2.453329-.4799952-3.264-1.44s-1.429331-2.1119933-1.856-3.456-.703999-2.7519926-.832-4.224-.192-2.6986618-.192-3.68c0-1.1093389.063999-2.2293277.192-3.36s.213333-2.2506611.256-3.36c0-.341335-.170665-.5546662-.512-.64s-.661332-.128-.96-.128c-.512003 0-.831999.0639994-.96.192s-.213333.2773325-.256.448l-.256 2.048c-.170668 1.3653402-.351999 2.677327-.544 3.936s-.405332 2.3679952-.64 3.328-.511998 1.7279971-.832 2.304-.693331.864-1.12.864h-.064c-.170668 0-.330666-.0426662-.48-.128s-.224-.298665-.224-.64c0-.1706675.042666-.426665.128-.768.341335-1.4933408.554666-2.7306618.64-3.712s.149333-1.8559962.192-2.624v-.448c0-.2133344.010667-.4693318.032-.768s.032-.6613312.032-1.088v-3.136c0-.5120026-.042666-1.0666637-.128-1.664l-.192-3.776c0-.2560013.106666-.4906656.32-.704s.490665-.4053325.832-.576.703998-.2986662 1.088-.384.725332-.128 1.024-.128c.725337 0 1.088.4693286 1.088 1.408v.32l-.064 1.408v.384c0 .2986682.063999.4799997.192.544s.383998.1386662.768.224h.192c.341335.0426669.895996.0853331 1.664.128s1.535996.1279994 2.304.256 1.439997.3306653 2.016.608.864.6719974.864 1.184c0 .1706675-.042666.4159984-.128.736s-.191999.6399984-.32.96-.234666.6079987-.32.864-.128.4266662-.128.512c-.768004 2.9440147-1.152 6.015984-1.152 9.216 0 .2560013.021333.7253299.064 1.408s.127999 1.386663.256 2.112.319999 1.3653306.576 1.92.575998.832.96.832c.640003 0 1.215997-.3946627 1.728-1.184s.959998-1.7066614 1.344-2.752.693332-2.101328.928-3.168.394666-1.8559974.48-2.368c.085334-.4693357.223999-.7573328.416-.864s.373332-.16.544-.16c.597336 0 .896.3839962.896 1.152 0 .0853338-.010667.3093315-.032.672s-.053333.6293325-.096.8zm43.072-6.72c-.597336 1.1520058-1.151997 2.3679936-1.664 3.648s-.895999 2.282663-1.152 3.008c-.042667.2133344-.159999.6613299-.352 1.344s-.405332 1.4399958-.64 2.272-.437332 1.6533293-.608 2.464-.256 1.4719974-.256 1.984c0 .2133344-.191998.4053325-.576.576s-.874664.256-1.472.256c-.938671 0-1.685331-.1279987-2.24-.384s-.970665-.6719971-1.248-1.248-.448-1.3333286-.512-2.272-.096-2.0693267-.096-3.392v-4.8c0-.341335-.010667-.682665-.032-1.024s-.095999-.5546662-.224-.64c-.213334.0853338-.479998.6399949-.8 1.664s-.618665 2.2719926-.896 3.744-.522666 3.0186586-.736 4.64-.32 3.0719936-.32 4.352c0 .4693357-.245331.7466662-.736.832s-1.034664.128-1.632.128c-.170668 0-.458665-.0319997-.864-.096s-.810665-.1386662-1.216-.224-.778665-.2026659-1.12-.352-.554666-.3306656-.64-.544c-.213334-.5546694-.373333-1.4719936-.48-2.752s-.16-3.2639866-.16-5.952c0-1.5786746.032-3.4133229.096-5.504s.138666-4.5439859.224-7.36c0-.3840019-.021333-.8853302-.064-1.504s-.064-.9706662-.064-1.056c0-.341335.138665-.5439997.416-.608s.479999-.096.608-.096c.298668 0 .650665.0319997 1.056.096s.810665.1386662 1.216.224.778665.1813328 1.12.288.575999.2026662.704.288v15.424c.213334-.8533376.458665-1.8453277.736-2.976s.597332-2.2506611.96-3.36.757331-2.1333286 1.184-3.072.874664-1.6213312 1.344-2.048c.170668-.1280006.490664-.2239997.96-.288s.853332-.096 1.152-.096c.213334 0 .479998.0319997.8.096s.629332.1599994.928.288.565332.287999.8.48.373333.4159987.416.672v10.944c0 .2560013.042666.384.128.384s.330665-.5759942.736-1.728.885331-2.5173254 1.44-4.096 1.151997-3.1999917 1.792-4.864 1.215997-2.9866618 1.728-3.968c.085334-.1706675.373331-.2666666.864-.288s.927998-.032 1.312-.032c.298668 0 .703997.095999 1.216.288s1.013331.458665 1.504.8.917332.7253312 1.28 1.152.544.8746643.544 1.344c0 .0853338-.127999.3306646-.384.736s-.426666.8213312-.512 1.248c-.298668 1.1946726-.501333 2.3679942-.608 3.52s-.16 2.623991-.16 4.416c0 .7680038.032 1.5359962.096 2.304s.170666 1.4613302.32 2.08.351999 1.1199981.608 1.504.597331.576 1.024.576c.597336 0 1.130664-.2026646 1.6-.608s.874665-.9493299 1.216-1.632.639999-1.4826621.896-2.4.469332-1.8666618.64-2.848c.213334-1.0240051.597331-1.536 1.152-1.536.341335 0 .565333.0853325.672.256s.16.5546637.16 1.152c0 .341335-.021333.5759994-.064.704-.042667.5546694-.223998 1.4186608-.544 2.592s-.767997 2.3466608-1.344 3.52-1.290662 2.197329-2.144 3.072-1.834661 1.312-2.944 1.312c-1.322673 0-2.410662-.3093302-3.264-.928s-1.514664-1.4506614-1.984-2.496-.799999-2.2506598-.992-3.616-.288-2.7946592-.288-4.288v-.448z"/><path d="m184.344 32.864c-.085334.5973363-.298665 1.3013293-.64 2.112s-.778664 1.5893296-1.312 2.336-1.151996 1.3759974-1.856 1.888-1.482662.768-2.336.768c-1.280006 0-2.399995-.4906618-3.36-1.472s-1.546666-2.367991-1.76-4.16c-.256001.6826701-.554665 1.4719955-.896 2.368s-.767997 1.7279962-1.28 2.496-1.098663 1.418664-1.76 1.952-1.439996.8-2.336.8c-.256001 0-.447999-.0213331-.576-.064s-.266666-.0959997-.416-.16-.319999-.1173331-.512-.16-.458665-.064-.8-.064c-1.024005 0-1.887996-.3306634-2.592-.992s-1.269331-1.5039949-1.696-2.528-.735999-2.1439939-.928-3.36-.288-2.357328-.288-3.424c0-2.5600128.138665-4.9919885.416-7.296s.735997-4.3413245 1.376-6.112 1.471995-3.1786614 2.496-4.224 2.261326-1.568 3.712-1.568c.853338 0 1.503998.0746659 1.952.224s.863998.319999 1.248.512.799998.3946656 1.248.608 1.077329.3839994 1.888.512c.896004.5120026 1.525332 1.1199965 1.888 1.824s.597333 1.4613293.704 2.272.138667 1.653329.096 2.528-.000001 1.7386624.128 2.592c0 .0426669.095999.1066662.288.192s.415999.1813328.672.288.479999.255999.672.448.288.4373318.288.736v.256c-.426669 1.1093389-.682666 2.0906624-.768 2.944s-.128 1.8773274-.128 3.072c0 .5973363.032 1.2479965.096 1.952s.170666 1.3653302.32 1.984.373332 1.1306646.672 1.536.682664.608 1.152.608c.512003 0 .970665-.2559974 1.376-.768s.746665-1.0986634 1.024-1.76.511999-1.3333299.704-2.016.309333-1.194665.352-1.536c.085334-.5120026.298665-.768.64-.768.213334 0 .415999.1173322.608.352s.288.6506637.288 1.248v.48c0 .1493341-.021333.3306656-.064.544zm-11.84-10.368c0-.4693357-.042666-1.0239968-.128-1.664s-.234666-1.2373306-.448-1.792-.533331-1.0239981-.96-1.408-1.002663-.576-1.728-.576c-1.194673 0-2.16533.5439946-2.912 1.632s-1.333331 2.3679926-1.76 3.84-.703999 2.9866589-.832 4.544-.192 2.7839955-.192 3.68c0 .6826701.032 1.5039952.096 2.464s.181332 1.8666624.352 2.72.415998 1.5786637.736 2.176.735997.896 1.248.896c1.23734 0 2.186663-.4799952 2.848-1.44s1.162665-2.1546595 1.504-3.584.586666-2.9653251.736-4.608.287999-3.1466598.416-4.512c.085334-.725337.277332-1.183999.576-1.376s.448-.3306662.448-.416z"/></g></svg>